0
SECTION
2
ENTITIES
0
LINE
8
CREASE
10
6.0000
20
7.5200
30
0.0
11
6.0000
21
2.3200
31
0.0
0
LINE
8
CREASE
10
9.8000
20
7.5200
30
0.0
11
9.8000
21
2.3200
31
0.0
0
LINE
8
CREASE
10
15.8000
20
7.5200
30
0.0
11
15.8000
21
2.3200
31
0.0
0
LINE
8
CREASE
10
19.6000
20
7.5200
30
0.0
11
19.6000
21
2.3200
31
0.0
0
LINE
8
CREASE
10
0.4400
20
7.5200
30
0.0
11
5.5600
21
7.5200
31
0.0
0
LINE
8
CREASE
10
6.5600
20
7.5200
30
0.0
11
9.2000
21
7.5200
31
0.0
0
LINE
8
CREASE
10
9.8000
20
7.5200
30
0.0
11
15.8000
21
7.5200
31
0.0
0
LINE
8
CREASE
10
16.3600
20
7.5200
30
0.0
11
19.0000
21
7.5200
31
0.0
0
LINE
8
CREASE
10
0.0000
20
2.3200
30
0.0
11
6.0000
21
2.3200
31
0.0
0
LINE
8
CREASE
10
6.0000
20
2.3200
30
0.0
11
9.8000
21
2.3200
31
0.0
0
LINE
8
CREASE
10
9.8000
20
2.3200
30
0.0
11
15.8000
21
2.3200
31
0.0
0
LINE
8
CREASE
10
15.8000
20
2.3200
30
0.0
11
19.6000
21
2.3200
31
0.0
0
LINE
8
CUT
10
0.0000
20
7.5200
30
0.0
11
0.4400
21
7.5200
31
0.0
0
LINE
8
CUT
10
5.5600
20
7.5200
30
0.0
11
6.0000
21
7.5200
31
0.0
0
LINE
8
CUT
10
0.0000
20
7.5200
30
0.0
11
0.0000
21
2.3200
31
0.0
0
LINE
8
CUT
10
0.4400
20
10.0000
30
0.0
11
5.5600
21
10.0000
31
0.0
0
LINE
8
CUT
10
0.4400
20
10.0000
30
0.0
11
0.4400
21
7.5200
31
0.0
0
LINE
8
CUT
10
5.5600
20
10.0000
30
0.0
11
5.5600
21
7.5200
31
0.0
0
LINE
8
CUT
10
0.0000
20
0.0000
30
0.0
11
6.0000
21
0.0000
31
0.0
0
LINE
8
CUT
10
0.0000
20
2.3200
30
0.0
11
0.0000
21
0.0000
31
0.0
0
LINE
8
CUT
10
6.0000
20
2.3200
30
0.0
11
6.0000
21
0.0000
31
0.0
0
LINE
8
CUT
10
6.0000
20
7.5200
30
0.0
11
6.5600
21
7.5200
31
0.0
0
LINE
8
CUT
10
9.2000
20
7.5200
30
0.0
11
9.8000
21
7.5200
31
0.0
0
LINE
8
CUT
10
6.5600
20
9.1200
30
0.0
11
9.2000
21
9.1200
31
0.0
0
LINE
8
CUT
10
6.5600
20
9.1200
30
0.0
11
6.5600
21
7.5200
31
0.0
0
LINE
8
CUT
10
9.2000
20
9.1200
30
0.0
11
9.2000
21
7.5200
31
0.0
0
LINE
8
CUT
10
6.0000
20
0.0000
30
0.0
11
9.8000
21
0.0000
31
0.0
0
LINE
8
CUT
10
6.0000
20
2.3200
30
0.0
11
6.0000
21
0.0000
31
0.0
0
LINE
8
CUT
10
9.8000
20
2.3200
30
0.0
11
9.8000
21
0.0000
31
0.0
0
LINE
8
CUT
10
9.8000
20
8.2400
30
0.0
11
15.8000
21
8.2400
31
0.0
0
LINE
8
CUT
10
9.8000
20
8.2400
30
0.0
11
9.8000
21
7.5200
31
0.0
0
LINE
8
CUT
10
15.8000
20
8.2400
30
0.0
11
15.8000
21
7.5200
31
0.0
0
LINE
8
CUT
10
9.8000
20
0.0000
30
0.0
11
15.8000
21
0.0000
31
0.0
0
LINE
8
CUT
10
9.8000
20
2.3200
30
0.0
11
9.8000
21
0.0000
31
0.0
0
LINE
8
CUT
10
15.8000
20
2.3200
30
0.0
11
15.8000
21
0.0000
31
0.0
0
LINE
8
CUT
10
15.8000
20
7.5200
30
0.0
11
16.3600
21
7.5200
31
0.0
0
LINE
8
CUT
10
19.0000
20
7.5200
30
0.0
11
19.6000
21
7.5200
31
0.0
0
LINE
8
CUT
10
16.3600
20
9.1200
30
0.0
11
19.0000
21
9.1200
31
0.0
0
LINE
8
CUT
10
16.3600
20
9.1200
30
0.0
11
16.3600
21
7.5200
31
0.0
0
LINE
8
CUT
10
19.0000
20
9.1200
30
0.0
11
19.0000
21
7.5200
31
0.0
0
LINE
8
CUT
10
15.8000
20
0.0000
30
0.0
11
19.6000
21
0.0000
31
0.0
0
LINE
8
CUT
10
15.8000
20
2.3200
30
0.0
11
15.8000
21
0.0000
31
0.0
0
LINE
8
CUT
10
19.6000
20
2.3200
30
0.0
11
19.6000
21
0.0000
31
0.0
0
LINE
8
CUT
10
19.6000
20
7.5200
30
0.0
11
20.4800
21
7.5200
31
0.0
0
LINE
8
CUT
10
19.6000
20
2.3200
30
0.0
11
20.4800
21
2.3200
31
0.0
0
LINE
8
CUT
10
20.4800
20
7.5200
30
0.0
11
20.4800
21
2.3200
31
0.0
0
ENDSEC
0
EOF
